<?xml version="1.0" encoding="utf-8"?>
<svg id="svg2" height="493pt" width="433pt" version="1.1" viewBox="0 0 512 512" xmlns="http://www.w3.org/2000/svg">
  <g id="g4253" transform="matrix(1, 0, 0, 1, 39.083965, 10.248701)">
    <path id="rect4250" d="m377.11 1.8156c-1.88-0.0156-3.8 0.0932-5.76 0.3344-80.82 9.04-145.91 63.55-205.94 113.62-38.13 1.96-77.389 1.3503-114.06 13.57-12.72 4.04-26.261 13.24-26.091 28.05-0.22 31.75 18.211 61.599 42.741 80.719-3.19 8.95-12.33 16.62-9.0703 26.85 0.24 7.71 4.0997 14.65 8.1797 20.97-8.02 10.27-15.569 27.48-3.8188 37.83 6.71 6.94 13.449 14.061 21.589 19.361 22.37 20.02 48.541 35.68 73.141 52.88 12.72 10.49 24.369-3.59 31.789-13.15 15.86 14.91 39.52 15.141 53.3-2.5094 24.24 17.16 52.96 34.66 84.02 31.03 18.7-3.94 25.46-24.95 27.67-41.55 4.11-37.06-3.4297-74.18-10.68-110.37 21.6-31.43 44.86-61.76 65.32-94 20.6-31.9 25.47-72.131 19.15-109.04-3.78-26.222-23.25-54.36-51.48-54.594zm-311.74 359.53c-17.513-0.19765-38.456 6.1844-46.034 23.028-1.28 3.89 4.7194 4.2303 7.4094 4.3203 0.54 2.83 3.4197 4.3694 5.1797 6.4594-8.99 18.15-21.06 35.611-23.85 56.111-4.57 9.53-5.9994 27.81-5.2094 38.42 12.71-5.73 28.19-8.7203 40.13-14.82 17.68-3.31 36.171-10.901 45.841-27.011 13.77 12.31 27.909-8.9988 31.139-20.969 2.07-17.94 1.4709-44.131-16.589-54.281-4.3794-6.4594-11.585-9.7895-19.186-9.9906-1.754-0.0464-3.5291 0.0741-5.2953 0.36094-3.9966-1.0019-8.6309-1.5728-13.534-1.6281z" fill="#fc9a67"/>
    <path id="path4" d="m377.11 1.8156c-1.88-0.0156-3.8 0.0932-5.76 0.3344-80.82 9.04-145.91 63.55-205.94 113.62-38.13 1.96-77.389 1.3503-114.06 13.57-12.72 4.04-26.261 13.24-26.091 28.05-0.22 31.75 18.211 61.599 42.741 80.719-3.19 8.95-12.33 16.62-9.0703 26.85 2.73 6.68 15.69 13.49 8.1797 20.97-8.02 10.27-15.569 27.48-3.8188 37.83 6.71 6.94 13.449 14.061 21.589 19.361 23.95 16.31 50.68 27.999 74.33 44.809 3.22 2.95 7.7103 3.8897 11.87 2.5797 8.1-0.84 11.01-17.259 18.73-7.6594 15.86 14.91 39.52 15.141 53.3-2.5094 24.24 17.16 52.96 34.66 84.02 31.03 18.7-3.94 25.46-24.95 27.67-41.55 4.11-37.06-3.4297-74.18-10.68-110.37 21.6-31.43 44.86-61.76 65.32-94 20.6-31.9 25.47-72.131 19.15-109.04-3.78-26.222-23.25-54.36-51.48-54.594zm-3.1 8.2875c12.593-0.01641 24.913 6.3534 32.639 16.267 15.87 21.16 17.029 49.5 14.709 74.83-15.33-36.33-40.909-69.599-77.569-86.159 8.18-1.92 16.439-3.7212 24.819-4.5312 1.7975-0.27125 3.6026-0.40391 5.4016-0.40625zm-43.077 10.745c12.721 0.32812 25.283 10.624 34.966 18.281 22.95 16.26 38.201 41.91 48.091 67.82 10.84 14.37-1.5303 32.549-7.3703 46.659-36.85 56.64-77.121 111-119.64 163.41-53.02-48.55-125.91-74.251-168.69-133.94 23.19-28.18 47.059-56.17 74.969-79.82 40.49-28.07 77.82-61.94 125-78.95 4.175-2.5725 8.4345-3.5703 12.675-3.4609zm-47.444 57.38c-2.9797-0.03512-5.9362 0.05625-8.85 0.27188-51.61 4.56-87.191 65.2-72.541 113.37 12.18 37.24 57.419 61.8 94.709 46.9 19.73-10.04 38.02-23.84 51-41.97 14.94-23.55 17.7-54.21 10.24-80.67-14.82-25.43-45.76-37.562-74.56-37.902zm-4.2297 8.2187c27.235-0.32703 58.955 9.6747 72.169 35.163 5.5 27 2.0509 58.391-17.439 79.381-11.94 13.04-26.891 23.499-42.791 31.169-40.78 13.73-88.77-23.779-84.23-66.969 2.88-36.78 30.39-76.141 69.67-78.681 0.86844-0.03188 1.7418-0.05195 2.6203-0.0625zm-9.79 14.153c-4.9699 0.0294-10.211 2.04-14.486 4.3406-24.04 13.59-41.8 40.859-41.95 68.739-1.5 10.03 8.07 18.01 17.75 15.65 8.07-1.87 4.6397-13.009 6.8297-18.739 0.56-14.14 10.3-25.831 22.02-32.791 1.8-1.28 3.68-2.43 5.55-3.6 10.27-5 25.921-17.55 14.811-29.28-2.9575-3.1675-6.6595-4.3432-10.525-4.3203zm0.40469 4.8594c14.07 0.49 8.5397 17.66-0.97031 20.55-20.56 9.62-39.59 28.121-36.87 52.761 0.13 12.32-17.96 3.0703-14.53-6.1297 2.6-28.99 22.28-61.031 52.37-67.181zm-115.67 19.51c1.28 0.06 2.5606 0.22 3.8406 0.4-24.02 23.7-45.201 50.059-65.791 76.739-0.49 2.46-2.4797 3.8803-3.9797 5.6703-5.73 6.59-9.0697 16.47-15.28 21.95-17.38-9.69-27.42-28.8-35.12-46.55-4.59-13.34-8.7997-33.91 7.2203-41.23 33.521-16.92 72.61-15.1 109.11-16.98zm-39.28 62.92c19.79 26.01 45.51 46.54 72.22 64.98 26.34 17.79 55.26 32.79 78.8 54.22 5.96 4.07 13.26 8.8791 16.83 14.789-13.61 18.56-29.53 35.71-45.68 52.18-6.85 5.41-14.841 15.93-24.681 11.67-18.06-7.23-33.2-19.959-48.58-31.559-32.23-26.18-63.919-53.381-91.559-84.441-6.71-5.06-5.7706-13.559-1.2906-19.639 12.73-21.95 27.301-43.07 43.941-62.2zm133.47 4.5484c-1.4491 0.002-2.9931 0.28063-4.6094 0.89063-14.87 4.5 2.51 35.041 13 20.461 7.2275-7.8662 1.753-21.368-8.3906-21.352zm-0.72188 5.3156c6.9254-0.29983 9.7528 8.0778 5.3031 13.416-6.34 4.12-13.99-9.0297-7.5797-13.03 0.80063-0.22968 1.5602-0.35492 2.2766-0.38593zm-157.07 50.5c-13.71-0.0452-3.8312 25.433 8.4125 19.077 6.56-6.39 3.6-16.631-5.35-18.711-1.13-0.24687-2.1485-0.36262-3.0625-0.36563zm2.1594 5.65c3.739 0.31726 7.5884 4.8016 3.0141 6.9953-3.93 4.48-9.9697-3.9188-5.4797-6.4688 0.74625-0.45 1.6028-0.59977 2.4656-0.52656zm243.91 14.58c1.4708-0.16859 1.2609 4.4962 1.5859 6.0969 5.7 38.41 19.401 84.179-1.2094 119.39-1.41 4.32-6.0303 7.2209-10.32 8.1609-24.21 5.28-51.601-10.08-71.991-24.3-2.36-0.83-4.4897-2.43-5.6297-4.7 31.87-31.8 58.81-68.091 86.25-103.66 0.54562-0.65063 0.97465-0.94703 1.3141-0.98594zm-260.51 18.7c31.25 30.82 63.511 60.969 99.541 86.239 0.04 4.44-5.5994 12.08-10.459 8.5203-31.65-22.63-70.41-35.8-96.74-65.47-6.95-10.2 2.1294-20.899 7.6594-29.289zm70.198 2.2453c-4.0898-0.0769-8.6925 3.3847-11.738 5.3047-6.59 10.3 8.1191 23.779 17.539 15.409 6.16-6.46-2.3594-12.72-1.9594-19.27-1.1725-1-2.4789-1.4181-3.8422-1.4438zm-3.2375 5.6047c3.58 2.26 10.5 9.2497 3.1203 11.38-9.05 3.74-10.58-9.1397-3.1203-11.38zm53.658 41.494c-2.6419-0.0108-5.0994 0.83562-6.5781 2.975-1.63 8.28 3.9106 17.84 12.541 19.15 6.75-3.81 5.7894-12.54 3.4594-18.75-2.3231-1.9294-6.0251-3.3611-9.4219-3.375zm0.70312 5.3641c4.8415-0.12633 7.8181 5.0034 6.2781 9.8422-4.52 1.79-11.769-6.42-8.4594-9.45 0.76-0.24875 1.4896-0.37413 2.1812-0.39218zm-113.28 20.73c-1.754-0.0464-3.5291 0.0741-5.2953 0.36094-18.531 0.14-49.36 2.46-52.16 25.72 0.54 2.83 3.4197 4.3694 5.1797 6.4594-8.99 18.15-21.06 35.611-23.85 56.111 0.17 8.83-2.8903 20.249 3.1297 27.589 10.54 1.5 21.151-3.6591 31.791-3.9891 17.68-3.31 36.171-10.901 45.841-27.011 3.99-2.96 10.699-0.0794 14.639-4.3094 21.39-17.77 17.281-51.731-0.0891-70.941-4.3794-6.4594-11.585-9.7895-19.186-9.9906zm-5.8125 8.2969c27.905-0.0826 41.092 45.275 22.858 64.484-5.17 7.87-14.13-8.4794-17.4 3.4406-12.86 25.07-42.95 28.93-67.88 31.88-1.13-26.22 10.699-51.06 24.159-72.82 3.2-5.03-1.3991-8.4994-4.8391-11.209 7.04-13.09 24.21-13.551 37.33-15.131 1.9862-0.43063 3.9115-0.63824 5.7719-0.64376zm-4.7375 11.42c-10.27 0.25812-19.896 8.7309-23.405 18.023-4.52 13.65 12.3 22.02 23.7 21.7 20.23 0.96 26.37-38.439 4.1297-39.309-1.4775-0.32-2.9578-0.45094-4.425-0.41406zm-3.1234 4.6906c4.2067-0.0509 6.8216 6.0116 11.389 2.0828 13.24 8.32 0.68969 35.381-15.52 26.961-16.12-1.8-11.01-26.09 2.2203-28.6 0.67625-0.30375 1.31-0.43648 1.9109-0.44375z"/>
    <path id="path8" d="m330.93 20.848c-4.2405-0.10938-8.5 0.88844-12.675 3.4609-47.18 17.01-84.51 50.88-125 78.95-27.91 23.65-51.779 51.64-74.969 79.82 42.78 59.69 115.67 85.391 168.69 133.94 42.52-52.41 82.791-106.77 119.64-163.41 5.84-14.11 18.21-32.289 7.3703-46.659-14.56-23.6-28.18-47.93-48.08-67.82-9.68-7.658-22.24-17.953-34.97-18.282zm-47.444 57.38c28.803 0.33951 59.742 12.472 74.559 37.902 7.46 26.46 4.6994 57.12-10.241 80.67-12.98 18.13-31.27 31.93-51 41.97-37.29 14.9-82.529-9.66-94.709-46.9-14.65-48.17 20.93-108.81 72.54-113.37 2.9138-0.21562 5.8703-0.307 8.85-0.27188zm0.35782 26.031c-1.2038-0.003-2.4919 0.20531-3.8578 0.66093 11.11 11.73-4.5409 24.28-14.811 29.28 5.83 0.59 14.99-5.4403 22.03-5.7203 11.944-4.5403 8.2762-24.193-3.3609-24.22zm-13.978 1.2c-30.09 6.15-49.77 38.191-52.37 67.181-3.43 9.2 14.66 18.45 14.53 6.1297-2.72-24.64 16.31-43.141 36.87-52.761 9.51-2.89 15.04-20.06 0.97031-20.55zm-115.67 19.51c-10.46 13.17-27.249 19.459-36.559 33.689-8.7 12.45-19.48 23.391-27.67 36.181 2.24 1.81 2.9297 4.5188 2.2797 7.2688 20.59-26.68 41.771-53.039 65.791-76.739-1.28-0.18-2.5606-0.34-3.8406-0.4zm105.43 12.83c-11.72 6.96-21.46 18.651-22.02 32.791-2.19 5.73 1.2403 16.869-6.8297 18.739-7.25 0.61-9.4103 2.3709-1.6203 4.5109 14.97-3.32 11.83-22.87 15.37-34.27 2.24-9.07 10.39-14.34 15.1-21.77zm-11.963 59.955c-0.71641 0.031-1.4759 0.15625-2.2766 0.38593-6.41 4 1.2397 17.15 7.5797 13.03 4.4497-5.3378 1.6223-13.715-5.3031-13.416zm-149.38 49.906c-1.4028-0.0508-2.954 0.24124-4.6328 0.96875 8.95 2.08 11.91 12.321 5.35 18.711 11.664-2.17 9.1025-19.324-0.7172-19.68zm88.848 5.2094c23.86 21.43 52.5 36.21 78.8 54.22-23.54-21.43-52.46-36.43-78.8-54.22zm-94.384 1.0438c-0.86286-0.0732-1.7194 0.0766-2.4656 0.52656-4.49 2.55 1.5497 10.949 5.4797 6.4688 4.5744-2.1938 0.72499-6.6781-3.0141-6.9953zm243.91 14.58c-0.33941 0.0389-0.76844 0.33531-1.3141 0.98594-27.44 35.57-54.38 71.861-86.25 103.66 1.14 2.27 3.2697 3.87 5.6297 4.7 1.66-2.87 3.8997-5.31 5.9797-7.85 4.7-8.74 13.94-13.801 20.32-21.181 16.01-27.13 38.26-49.419 57.22-74.219-0.325-1.6006-0.11515-6.2655-1.5859-6.0969zm-185.49 22.31c-0.31573 0.004-0.64031 0.0259-0.975 0.0672-0.4 6.55 8.1194 12.81 1.9594 19.27 9.4647-2.2862 8.8032-19.466-0.98438-19.338zm-8.0547 4.2281c-7.46 2.24-5.9297 15.12 3.1203 11.38 7.38-2.13 0.45969-9.1197-3.1203-11.38zm63.07 44.87c2.33 6.21 3.2906 14.94-3.4594 18.75 11.36 2.63 14.839-17.36 3.4594-18.75zm-8.7188 1.9891c-0.69164 0.0181-1.4212 0.14343-2.1812 0.39218-3.31 3.03 3.9394 11.24 8.4594 9.45 1.54-4.8388-1.4366-9.9685-6.2781-9.8422z" fill="#fdfefe"/>
    <path id="path14" d="m279.26 86.447c-0.87855 0.01055-1.7519 0.03062-2.6203 0.0625-39.28 2.54-66.79 41.901-69.67 78.681-4.54 43.19 43.45 80.699 84.23 66.969 15.9-7.67 30.851-18.129 42.791-31.169 19.49-20.99 22.939-52.381 17.439-79.381-13.21-25.488-44.93-35.49-72.17-35.163zm-9.79 14.153c3.8655-0.0229 7.5675 1.1528 10.525 4.3203 14.57-4.86 20.399 18.549 7.2188 23.559-7.04 0.28-16.2 6.3103-22.03 5.7203-1.87 1.17-3.75 2.32-5.55 3.6-4.71 7.43-12.86 12.7-15.1 21.77-3.54 11.4-0.40031 30.95-15.37 34.27-6.467-1.7766-6.0624-3.2893-1.5953-4.1016-8.4587 0.14094-15.867-7.147-14.534-16.059 0.15-27.88 17.91-55.149 41.95-68.739 4.275-2.3006 9.516-4.3112 14.486-4.3406zm-41.902 89.139c1.0607-0.0177 2.137-0.1464 3.2156-0.40937-1.2313 0.1036-2.3018 0.24321-3.2156 0.40937zm-73.37-64.77c-36.5 1.88-75.589 0.0597-109.11 16.98-16.02 7.32-11.81 27.89-7.2203 41.23 7.7 17.75 17.74 36.86 35.12 46.55 6.21-5.48 9.5497-15.36 15.28-21.95-7.29 3.37-12.98 19.42-22.33 13.47-16.96-18.36-33.54-45.149-25.97-70.709 12.48 18.91 31.08 31.84 50 44.3 8.19-12.79 18.97-23.731 27.67-36.181 9.31-14.23 26.099-20.519 36.559-33.689zm192.29 10.439c5.29 13.33 4.6891 39.121-7.5109 53.561-18.56 23.55-48.03 44.689-79.27 41.489 20-10.14 33.011-29.609 49.681-44.069 12.9-16.4 30.37-30.711 37.1-50.981zm-98.102 57.03c10.144-0.0168 15.618 13.485 8.3906 21.352-10.49 14.58-27.87-15.961-13-20.461 1.6162-0.61 3.1603-0.88823 4.6094-0.89063zm89.86 82.15c-18.96 24.8-41.21 47.089-57.22 74.219 2.69-0.52 6.23-1.4397 6.85 2.2203 8.22 21.63 28.491 34.79 49.161 42.95 20.61-35.21 6.9094-80.979 1.2094-119.39zm-77.541 95.4c-2.08 2.54-4.3197 4.98-5.9797 7.85 20.39 14.22 47.781 29.58 71.991 24.3-22.06-2.41-42.75-12.08-61.73-23.17-3.39-1.65-3.7412-5.6997-4.2812-8.9797z" fill="#9afdfd"/>
    <path id="path26" d="m346.49 135.41c5.29 13.33 4.69 39.12-7.51 53.56-18.56 23.55-48.03 44.69-79.27 41.49 20-10.14 33.01-29.61 49.68-44.07 12.9-16.4 30.37-30.71 37.1-50.98z" fill="#08ccfa"/>
    <g>
      <path id="path30" d="m39.97 150.54c-7.57 25.56 9.0103 52.349 25.97 70.709 9.35 5.95 15.04-10.1 22.33-13.47 1.5-1.79 3.4897-3.2103 3.9797-5.6703 0.65-2.75-0.0397-5.4588-2.2797-7.2688-18.92-12.46-37.52-25.39-50-44.3zm244.76 197.77c-1.1866-0.0364-2.5263 0.26781-3.7031 0.49532-6.38 7.38-15.62 12.441-20.32 21.181 0.54 3.28 0.89124 7.3297 4.2812 8.9797 18.98 11.09 39.67 20.76 61.73 23.17 4.29-0.94 8.9103-3.8409 10.32-8.1609-20.67-8.16-40.941-21.32-49.161-42.95-0.34875-2.0588-1.6213-2.6688-3.1469-2.7156z" fill="#4ab895"/>
      <path id="path52" d="m76.159 287.19c-5.53 8.39-14.609 19.089-7.6594 29.289 26.33 29.67 65.091 42.84 96.741 65.47 4.86 3.56 10.499-4.0803 10.459-8.5203-36.03-25.27-68.291-55.419-99.541-86.239zm8.7203 55.93c22.37 20.02 48.541 35.68 73.141 52.88 12.72 10.49 24.369-3.59 31.789-13.15-7.72-9.6-10.63 6.8194-18.73 7.6594-4.16 1.31-8.6503 0.37031-11.87-2.5797-23.65-16.81-50.38-28.499-74.33-44.809z" fill="#e56739"/>
      <path id="path70" d="m65.375 361.35c-17.513-0.19765-38.456 6.1844-46.034 23.028-1.28 3.89 4.7194 4.2303 7.4094 4.3203 2.8-23.26 33.629-25.58 52.159-25.72-3.9966-1.0019-8.6309-1.5728-13.534-1.6281zm13.017 9.5641c-1.8604 0.006-3.7856 0.21313-5.7719 0.64376-13.12 1.58-30.29 2.0412-37.33 15.131 3.44 2.71 8.0391 6.1794 4.8391 11.209-13.46 21.76-25.289 46.6-24.159 72.82 24.93-2.95 55.02-6.8097 67.88-31.88 3.27-11.92 12.23 4.4294 17.4-3.4406 18.234-19.209 5.0476-64.567-22.858-64.484zm24.998 1.6938c17.37 19.21 21.479 53.171 0.0891 70.941-3.94 4.23-10.649 1.3494-14.639 4.3094 13.77 12.31 27.909-8.9988 31.139-20.969 2.07-17.94 1.4709-44.131-16.589-54.281zm-29.736 9.7266c1.4672-0.0369 2.9475 0.0941 4.425 0.41406 22.24 0.87 16.1 40.269-4.1297 39.309-10.41 11.74-29.471 16.351-42.891 24.681 4.58-15.61 8.9406-33.931 19.191-46.381 3.5088-9.2925 13.135-17.765 23.405-18.023zm-65.575 68.934c-4.57 9.53-5.9994 27.81-5.2094 38.42 12.71-5.73 28.19-8.7203 40.13-14.82-10.64 0.33-21.251 5.4891-31.791 3.9891-6.02-7.34-2.9597-18.759-3.1297-27.589z" fill="#fa9a36"/>
      <path id="path82" d="m70.531 387.03c-0.60096 0.007-1.2347 0.14-1.9109 0.44375-13.23 2.51-18.34 26.8-2.2203 28.6 16.21 8.42 28.76-18.641 15.52-26.961-4.5675 3.9288-7.1824-2.1337-11.389-2.0828zm-20.281 13.33c-10.25 12.45-14.611 30.771-19.191 46.381 13.42-8.33 32.481-12.941 42.891-24.681-11.4 0.32-28.22-8.05-23.7-21.7z" fill="#e9e1ac"/>
    </g>
  </g>
</svg>